<svg width="24" height="24" viewBox="0 0 24 24" fill="none" xmlns="http://www.w3.org/2000/svg">
<path d="M3.34008 17C2.917 16.269 2.58806 15.4875 2.36108 14.674C2.85444 14.4232 3.2688 14.0408 3.55832 13.5691C3.84784 13.0974 4.00125 12.5549 4.00156 12.0014C4.00187 11.448 3.84907 10.9052 3.56008 10.4332C3.27109 9.96122 2.85716 9.57836 2.36408 9.32699C2.81583 7.69258 3.67618 6.20006 4.86408 4.99C5.32819 5.292 5.86682 5.45967 6.42034 5.47443C6.97386 5.48919 7.52066 5.35048 8.00021 5.07364C8.47975 4.79681 8.87332 4.39265 9.13734 3.90594C9.40136 3.41922 9.52552 2.86893 9.49608 2.316C11.1383 1.89195 12.8614 1.89298 14.5031 2.319C14.4742 2.87168 14.5988 3.42157 14.8631 3.90784C15.1273 4.39411 15.521 4.7978 16.0004 5.07426C16.4798 5.35073 17.0264 5.48918 17.5796 5.47431C18.1329 5.45943 18.6712 5.29182 19.1351 4.99C20.3216 6.2012 21.1826 7.69276 21.6381 9.326C21.1448 9.5769 20.7305 9.95937 20.4411 10.4311C20.1516 10.9028 19.9983 11.4454 19.9981 11.9989C19.9979 12.5523 20.1508 13.095 20.4399 13.567C20.729 14.0389 21.143 14.4217 21.6361 14.673C21.184 16.3075 20.3234 17.8 19.1351 19.01C18.671 18.708 18.1323 18.5403 17.5788 18.5256C17.0253 18.5108 16.4785 18.6495 15.999 18.9263C15.5194 19.2032 15.1258 19.6073 14.8618 20.0941C14.5978 20.5808 14.4736 21.1311 14.5031 21.684C12.861 22.1084 11.1379 22.1077 9.49608 21.682C9.525 21.1294 9.40051 20.5795 9.13638 20.0933C8.87224 19.607 8.47877 19.2033 7.99946 18.9267C7.52016 18.6502 6.9737 18.5116 6.42053 18.5263C5.86736 18.541 5.32903 18.7084 4.86508 19.01C4.27372 18.407 3.76199 17.7316 3.34008 17ZM9.00008 17.196C10.0658 17.8105 10.867 18.797 11.2501 19.966C11.7491 20.013 12.2501 20.014 12.7491 19.968C13.1318 18.7983 13.9331 17.8111 14.9991 17.196C16.0647 16.5798 17.3204 16.3789 18.5251 16.632C18.8151 16.224 19.0651 15.789 19.2731 15.334C18.4525 14.4174 17.9992 13.2302 18.0001 12C18.0001 10.74 18.4701 9.563 19.2731 8.666C19.0635 8.21121 18.8124 7.77671 18.5231 7.368C17.3194 7.6203 16.0649 7.41947 15.0001 6.804C13.9345 6.18937 13.1332 5.20298 12.7501 4.034C12.2501 3.987 11.7501 3.986 11.2501 4.033C10.8671 5.20235 10.0659 6.18912 9.00008 6.804C7.93446 7.42022 6.67876 7.62107 5.47408 7.368C5.18408 7.776 4.93408 8.211 4.72708 8.666C5.54765 9.58255 6.00097 10.7698 6.00008 12C6.00008 13.26 5.52908 14.437 4.72708 15.334C4.93673 15.7888 5.18779 16.2233 5.47708 16.632C6.6808 16.3797 7.93529 16.5805 9.00008 17.196ZM12.0001 15C11.2044 15 10.4414 14.6839 9.87876 14.1213C9.31615 13.5587 9.00008 12.7956 9.00008 12C9.00008 11.2043 9.31615 10.4413 9.87876 9.87867C10.4414 9.31607 11.2044 9 12.0001 9C12.7957 9 13.5588 9.31607 14.1214 9.87867C14.684 10.4413 15.0001 11.2043 15.0001 12C15.0001 12.7956 14.684 13.5587 14.1214 14.1213C13.5588 14.6839 12.7957 15 12.0001 15ZM12.0001 13C12.2653 13 12.5197 12.8946 12.7072 12.7071C12.8947 12.5196 13.0001 12.2652 13.0001 12C13.0001 11.7348 12.8947 11.4804 12.7072 11.2929C12.5197 11.1054 12.2653 11 12.0001 11C11.7349 11 11.4805 11.1054 11.293 11.2929C11.1054 11.4804 11.0001 11.7348 11.0001 12C11.0001 12.2652 11.1054 12.5196 11.293 12.7071C11.4805 12.8946 11.7349 13 12.0001 13Z" fill="black"/>
</svg>
